HIERARCHY
ROOT Hip
{
    OFFSET 0.0 0.0 0.0
    CHANNELS 6 Xposition Yposition Zposition Zrotation Xrotation Yrotation
    JOINT RightHip
    {
        OFFSET -14.46761417388916 0.0 0.0
        CHANNELS 3 Zrotation Xrotation Yrotation
        JOINT RightKnee
        {
            OFFSET 0.0 0.0 -45.8013916015625
            CHANNELS 3 Zrotation Xrotation Yrotation
            JOINT RightAnkle
            {
                OFFSET 0.0 0.0 -44.579383850097656
                CHANNELS 3 Zrotation Xrotation Yrotation
                End Site
                {
                    OFFSET 0.0 -17.83175277709961 0.0
                }
            }
        }
    }
    JOINT LeftHip
    {
        OFFSET 14.46761417388916 0.0 0.0
        CHANNELS 3 Zrotation Xrotation Yrotation
        JOINT LeftKnee
        {
            OFFSET 0.0 0.0 -45.8013916015625
            CHANNELS 3 Zrotation Xrotation Yrotation
            JOINT LeftAnkle
            {
                OFFSET 0.0 0.0 -44.579383850097656
                CHANNELS 3 Zrotation Xrotation Yrotation
                End Site
                {
                    OFFSET 0.0 -17.83175277709961 0.0
                }
            }
        }
    }
    JOINT Spine
    {
        OFFSET 0.0 0.0 24.38321304321289
        CHANNELS 3 Zrotation Xrotation Yrotation
        JOINT Thorax
        {
            OFFSET 0.0 0.0 24.166622161865234
            CHANNELS 3 Zrotation Xrotation Yrotation
            JOINT Neck
            {
                OFFSET 0.0 0.0 12.17811393737793
                CHANNELS 3 Zrotation Xrotation Yrotation
                End Site
                {
                    OFFSET 0.0 0.0 4.871245861053467
                }
            }
            JOINT LeftShoulder
            {
                OFFSET 15.442316055297852 0.0 0.0
                CHANNELS 3 Zrotation Xrotation Yrotation
                JOINT LeftElbow
                {
                    OFFSET 28.792964935302734 0.0 0.0
                    CHANNELS 3 Zrotation Xrotation Yrotation
                    JOINT LeftWrist
                    {
                        OFFSET 23.485233306884766 0.0 0.0
                        CHANNELS 3 Zrotation Xrotation Yrotation
                        End Site
                        {
                            OFFSET 9.394094467163086 0.0 0.0
                        }
                    }
                }
            }
            JOINT RightShoulder
            {
                OFFSET -15.442316055297852 0.0 0.0
                CHANNELS 3 Zrotation Xrotation Yrotation
                JOINT RightElbow
                {
                    OFFSET -28.792964935302734 0.0 0.0
                    CHANNELS 3 Zrotation Xrotation Yrotation
                    JOINT RightWrist
                    {
                        OFFSET -23.485233306884766 0.0 0.0
                        CHANNELS 3 Zrotation Xrotation Yrotation
                        End Site
                        {
                            OFFSET -9.394094467163086 0.0 0.0
                        }
                    }
                }
            }
        }
    }
}
MOTION
Frames: 18
Frame Time: 0.03333333333333333
-0.002410517540928023 30.128554889527738 -0.06352904057736326 -89.92691902 -55.64682426 -86.94803248 -0.04136003 -2.1077743 4.69350498 3.97372345 34.53886044 -17.00420787 0.0 0.0 0.0 -0.34673385 -12.5952045 -2.52173254 -3.566957 49.31868902 5.77678808 0.0 0.0 0.0 0.38644828 25.91219063 -0.10555244 -1.53326472 -4.8e-07 1.1e-07 2.44101119 -5.2258425 -2.45522032 6.53156312 -22.79540065 51.34124706 -91.82994427 -1.17e-06 1.59e-06 0.0 0.0 0.0 -0.94015206 -24.72138809 -53.32369407 55.83637787 2.3e-06 1.23e-06 0.0 0.0 0.0
0.002040255179774644 30.12838503666696 -0.03563697056116726 -89.32976323 -55.10724009 -87.15237333 0.0486225 -2.87940895 5.53815333 3.80242403 34.03526867 -16.88851398 0.0 0.0 0.0 -0.02765393 -12.97433866 -2.06372561 -4.25758429 52.15436851 6.51582311 0.0 0.0 0.0 -0.04699508 25.08402586 -0.82136291 -2.02697865 2.3e-07 -8e-07 2.8861221 -5.12403921 -1.55624304 5.62771305 -21.7023037 49.06814633 -93.69991766 -1.8e-07 5.6e-07 0.0 0.0 0.0 -3.03654305 -24.99426966 -51.04686677 59.25508813 1.69e-06 1e-06 0.0 0.0 0.0
0.006137022574908229 30.128158129416207 -0.014836101805827152 -88.06079792 -54.55883241 -86.88011603 0.15829133 -4.18605174 6.72111179 3.98071414 34.37858211 -17.19956111 0.0 0.0 0.0 0.28803119 -14.19232284 -1.06631118 -4.34613002 54.63525818 5.97933772 0.0 0.0 0.0 -0.44818835 24.18064942 -1.01014737 -1.93164046 4.5e-07 -9.5e-07 2.61277501 -5.52024378 -1.04433453 4.21865645 -20.10491517 46.77922859 -90.16184927 9e-07 1.02e-06 0.0 0.0 0.0 -3.22885931 -25.85679403 -48.09210377 61.0646384 -2.2e-07 1.28e-06 0.0 0.0 0.0
0.00980136354374116 30.127928418961815 -0.0025026550954609927 -86.46768377 -53.93480588 -86.54385163 0.3077492 -5.79250096 8.42970803 4.53815492 35.01580083 -18.00441365 0.0 0.0 0.0 0.63734812 -15.7454686 0.36256641 -3.85284948 56.06892504 4.74715292 0.0 0.0 0.0 -0.84865113 23.33204263 -0.38777121 -1.43276207 -1.5e-07 -1.05e-06 2.38544629 -6.18062943 -0.95202996 2.38561192 -17.66817788 45.15382954 -80.21074106 8.5e-07 8.8e-07 0.0 0.0 0.0 -1.40490333 -26.9956483 -44.99451017 60.50944673 -8.2e-07 5.8e-07 0.0 0.0 0.0
0.012971369730102048 30.127798950509273 -0.0012628953119868227 -84.9442716 -53.30194447 -86.38178459 0.46801245 -7.2364895 10.34643084 5.38449163 35.58761895 -18.81404204 0.0 0.0 0.0 0.97998371 -17.42424797 1.92784214 -2.75034802 56.22825777 3.21512033 0.0 0.0 0.0 -1.17306546 22.78594814 0.83787608 -0.56860386 3.4e-07 -1.58e-06 1.89737931 -7.20730141 -1.15877299 -0.24780186 -12.34212504 44.3551559 -66.79654958 8.4e-07 5.4e-07 0.0 0.0 0.0 1.41970004 -27.58468488 -41.84252603 58.56258064 -5.7e-07 1.7e-07 0.0 0.0 0.0
0.013670730790940095 30.12761337521027 -0.014763674666707072 -83.77191413 -52.86776472 -86.44818581 0.59605879 -8.39327605 12.24072012 6.42245951 35.9112676 -19.88042131 0.0 0.0 0.0 1.2516518 -19.10199269 3.45001501 -1.19011271 54.86088449 1.08179161 0.0 0.0 0.0 -1.3869437 22.67636335 2.603795 0.41082182 -1.7e-07 -1.97e-06 0.80560072 -8.45216779 -1.86775438 -3.43401702 -7.1477079 45.39520747 -52.53669593 8.5e-07 2.4e-07 0.0 0.0 0.0 5.04599927 -27.83431502 -39.66492975 55.5236323 -1.31e-06 6.3e-07 0.0 0.0 0.0
0.013255324643940903 30.127557972281206 -0.03883170846788191 -83.33191631 -52.73613249 -86.8849914 0.66641377 -9.12253146 13.68631643 7.39610193 36.42111898 -21.01881779 0.0 0.0 0.0 1.42837103 -20.53888066 4.65775597 0.11699748 52.46696557 -0.8073457 0.0 0.0 0.0 -1.54847555 23.26991292 4.65324869 1.02878283 3.2e-07 -6.6e-07 -0.2106091 -9.7448764 -2.72737457 -7.83332557 -3.58368525 46.64447769 -42.84896581 4.2e-07 5.1e-07 0.0 0.0 0.0 8.09791512 -27.92434808 -39.51564925 51.89259093 -1.42e-06 7.7e-07 0.0 0.0 0.0
0.01136311230399002 30.127677370010073 -0.07419345154312962 -83.25231319 -53.08737611 -87.24278108 0.68718412 -9.57032279 14.55970053 8.20984563 37.25843469 -22.15603876 0.0 0.0 0.0 1.52746352 -21.96066792 5.37677725 0.84664193 49.63155425 -2.22878542 0.0 0.0 0.0 -1.69347302 24.72120071 6.79098178 1.13991071 4.1e-07 -3.8e-07 -0.59100718 -11.2054242 -3.79997724 -11.18652882 -3.62907306 48.03054487 -36.777398 2.2e-07 1.7e-07 0.0 0.0 0.0 10.48308523 -28.25090007 -41.56030764 47.96208025 -2.41e-06 1.04e-06 0.0 0.0 0.0
0.008245647928053669 30.127974751271985 -0.11884491491871894 -83.01965869 -53.56007699 -86.80000123 0.63675683 -10.15659518 14.4544721 8.87553731 38.70618949 -23.23215072 0.0 0.0 0.0 1.44800036 -23.71173696 5.29523815 1.175094 47.19625905 -2.95219856 0.0 0.0 0.0 -1.64443468 26.64334918 8.35139705 0.88906732 8.1e-07 -2.9e-07 -0.03600122 -12.89927967 -4.57125842 -14.53784827 -4.98386426 49.26358201 -32.78648942 5.7e-07 6.9e-07 0.0 0.0 0.0 12.40791512 -28.68380242 -44.70758678 44.53096899 -1.77e-06 7.5e-07 0.0 0.0 0.0
0.005064004757815881 30.128387177508593 -0.1731771681735736 -82.13279599 -54.13426446 -85.15676404 0.55260934 -11.22851464 13.45468171 9.46585825 41.16023984 -24.15476522 0.0 0.0 0.0 1.21466759 -25.95007404 4.68588186 1.36042419 45.7341611 -3.25611002 0.0 0.0 0.0 -1.37461243 28.63497287 9.07789214 0.5767547 5.7e-07 3.5e-07 0.76308745 -14.58980783 -4.82549832 -18.06604343 -7.03200427 50.08840365 -30.12969881 5.7e-07 9e-08 0.0 0.0 0.0 14.67820041 -29.2689081 -48.11280292 41.18033111 -1.37e-06 5.9e-07 0.0 0.0 0.0
0.0016605996805972136 30.128873124268807 -0.23469259396272213 -81.1109254 -54.95380235 -82.98784045 0.37804405 -12.00543916 11.92072493 9.94241881 43.93366786 -24.84983374 0.0 0.0 0.0 0.78959421 -28.22522359 3.83700783 1.61385342 44.94769187 -3.75319625 0.0 0.0 0.0 -0.8931932 30.58514817 9.17198054 0.44632444 -8.3e-07 4e-07 1.43570632 -16.17989697 -4.99290211 -21.24101681 -9.41553117 50.65197986 -28.54953178 1.51e-06 6.1e-07 0.0 0.0 0.0 18.36248199 -29.37250182 -50.96584028 37.20899373 -7.2e-07 7.2e-07 0.0 0.0 0.0
-0.0021277339838593284 30.129375066218262 -0.29391643571775655 -80.16524814 -55.98476423 -80.91664523 0.16351615 -12.32852308 10.25535861 10.30266749 46.62285832 -25.09399819 0.0 0.0 0.0 0.2534748 -30.25390295 3.30335487 2.23173223 44.34983969 -4.93246132 0.0 0.0 0.0 -0.29731052 32.04032287 9.17340269 0.82011005 1.1e-07 5.1e-07 1.40705056 -17.38573838 -5.27871405 -23.45558489 -11.52101256 51.17122634 -27.71382537 1.42e-06 8.9e-07 0.0 0.0 0.0 22.79876397 -29.48283872 -52.88696145 32.9659871 -1e-07 6.7e-07 0.0 0.0 0.0
-0.0065056513639206205 30.12985634205252 -0.34287229041555217 -79.01008301 -56.98000338 -78.88953403 -0.02547081 -12.54569452 8.68119231 10.43256396 48.84149988 -24.69541977 0.0 0.0 0.0 -0.27316557 -31.87992928 3.11579632 3.03795974 43.8967396 -6.59343769 0.0 0.0 0.0 0.26958027 32.77155298 9.66839584 1.48271625 1.3e-07 1.4e-07 0.10047621 -18.19310046 -6.37341368 -23.95926114 -13.56420049 51.76032753 -27.0907672 4.5e-07 6.5e-07 0.0 0.0 0.0 26.24573609 -30.54235413 -54.65732984 29.81755892 5.7e-07 7e-07 0.0 0.0 0.0
-0.010937116470482719 30.130114255790684 -0.3750928906090118 -78.49278528 -57.78073244 -77.40669948 -0.21751354 -12.09773498 7.1115485 10.2938139 50.24426297 -24.20483452 0.0 0.0 0.0 -0.8687107 -32.36997291 2.96453973 3.89335706 43.34201308 -8.58180423 0.0 0.0 0.0 0.88937983 32.9186666 10.14909323 2.22651432 7.5e-07 -1.2e-07 -1.85061258 -18.12793447 -7.94540259 -21.63709556 -15.74363366 52.97242632 -26.51984196 -1.7e-07 7.3e-07 0.0 0.0 0.0 28.42547707 -31.78251287 -56.32286171 27.89083188 -1.5e-07 2.7e-07 0.0 0.0 0.0
-0.015444371902125761 30.130112611693324 -0.37782649475534297 -79.07891242 -58.20734335 -76.78877428 -0.38048688 -11.0615743 5.50764015 9.83692778 50.93253492 -23.47517471 0.0 0.0 0.0 -1.44522378 -31.61996191 2.53537855 4.38221986 42.57876859 -10.26102573 0.0 0.0 0.0 1.51853082 32.74225649 10.3057369 2.98835839 3.2e-07 -2e-07 -3.58932593 -17.21132518 -9.41766082 -16.71738134 -18.08370871 54.43138924 -26.32858705 -1.7e-07 1.43e-06 0.0 0.0 0.0 29.17798691 -32.51984016 -57.79958597 27.04369843 -8e-08 6.2e-07 0.0 0.0 0.0
-0.019042303081483598 30.129905072197232 -0.35645379620702866 -80.76573654 -58.21933346 -77.12205563 -0.47668867 -9.54652926 3.94555086 9.15281175 51.13540959 -22.71069051 0.0 0.0 0.0 -1.88644396 -29.73312294 1.70298952 4.26554389 41.61345203 -10.96462227 0.0 0.0 0.0 2.10570332 32.46593667 10.11842306 3.85647277 4.2e-07 -1.3e-07 -4.74039453 -15.79174716 -10.43570549 -10.07981196 -20.51477997 55.81228314 -26.98027324 -3.6e-07 2.15e-06 0.0 0.0 0.0 28.68597226 -32.61273776 -58.96057279 26.84863108 1.02e-06 2.6e-07 0.0 0.0 0.0
-0.021050936265402 30.12956105830009 -0.31766531675484816 -82.96645024 -57.96278412 -78.05559073 -0.5023351 -7.81647248 2.62441326 8.36316918 50.54451154 -21.79710215 0.0 0.0 0.0 -2.15066351 -27.0419227 0.56364186 3.64827802 40.88754854 -10.46254646 0.0 0.0 0.0 2.60746827 32.09450596 9.44579296 4.47268854 1.77e-06 1.4e-07 -5.43250991 -13.99675845 -10.83370853 -3.69191144 -22.35366382 56.65607354 -29.16914237 3.7e-07 1.85e-06 0.0 0.0 0.0 26.69917671 -32.15370893 -59.88728095 27.69515427 8.4e-07 -5.3e-07 0.0 0.0 0.0
-0.02127312115392605 30.129262807686708 -0.26738874291170495 -85.19415544 -57.63718181 -79.42313283 -0.44647953 -6.06519041 1.79672582 7.42709853 48.84603012 -20.84362099 0.0 0.0 0.0 -2.15590696 -23.94986003 -0.56842253 2.64630985 40.74578282 -8.77800554 0.0 0.0 0.0 2.8639548 31.55775265 8.25092363 4.47081237 1.4e-07 -9e-08 -5.51992271 -12.0389106 -10.48507665 1.89336672 -24.05467662 57.14469992 -33.71941142 -5e-08 2.9e-07 0.0 0.0 0.0 24.00976035 -31.17022177 -59.85336958 29.79575299 1.7e-06 -1.8e-06 0.0 0.0 0.0
